<svg id="e5EtsnLdZgV1" xmlns="http://www.w3.org/2000/svg" xmlns:xlink="http://www.w3.org/1999/xlink" viewBox="75 135 150 45" shape-rendering="geometricPrecision" text-rendering="geometricPrecision"><defs><linearGradient id="e5EtsnLdZgV9-fill" x1="0.5" y1="0" x2="0.5" y2="1" spreadMethod="pad" gradientUnits="objectBoundingBox" gradientTransform="translate(0 0)"><stop id="e5EtsnLdZgV9-fill-0" offset="0%" stop-color="#175c26"/><stop id="e5EtsnLdZgV9-fill-1" offset="100%" stop-color="#123318"/></linearGradient><linearGradient id="e5EtsnLdZgV13-fill" x1="0.5" y1="0" x2="0.5" y2="1" spreadMethod="pad" gradientUnits="objectBoundingBox" gradientTransform="translate(0 0)"><stop id="e5EtsnLdZgV13-fill-0" offset="0%" stop-color="#175c26"/><stop id="e5EtsnLdZgV13-fill-1" offset="100%" stop-color="#123318"/></linearGradient></defs><g id="e5EtsnLdZgV2" transform="translate(49.734811-16.600229)"><path d="M39.760699,194.478768q-.257424-21.366202,11.584085-21.88105t11.326659,21.88105l-22.910745-.000001" transform="translate(.000003 0.000002)" fill="#fff" stroke-width="0.6"/><ellipse rx="5.920755" ry="6.043913" transform="translate(51.75812 167.322237)" fill="#fff" stroke-width="0"/></g><g id="e5EtsnLdZgV5" transform="translate(146.825655-16.600234)"><path d="M39.760699,194.478768q-.257424-21.366202,11.584085-21.88105t11.326659,21.88105l-22.910745-.000001" transform="translate(.000003 0.000002)" fill="#fff" stroke-width="0.6"/><ellipse rx="5.920755" ry="6.043913" transform="translate(51.75812 167.322237)" fill="#fff" stroke-width="0"/></g><g id="e5EtsnLdZgV8" transform="matrix(1.245616 0 0 1.245616 8.570344-25.480743)" opacity="0"><rect width="5.091511" height="4.903018" rx="0" ry="0" transform="translate(150 130.900352)" fill="url(#e5EtsnLdZgV9-fill)" stroke-width="0.5" stroke-linecap="round" stroke-linejoin="round"/><line x1="-0.463309" y1="-0.194842" x2="0.64153" y2="0.636676" transform="translate(151.522273 134.054319)" fill="none" stroke="#fff" stroke-width="0.5" stroke-linecap="round"/><line x1="-2.644654" y1="2.451509" x2="-0.824492" y2="-0.187017" transform="translate(154.857038 132.199744)" fill="none" stroke="#fff" stroke-width="0.5" stroke-linecap="round"/></g><g id="e5EtsnLdZgV12" transform="matrix(1.245616 0 0 1.245616-88.429656-25.480743)" opacity="0"><rect width="5.091511" height="4.903018" rx="0" ry="0" transform="translate(150 130.900352)" fill="url(#e5EtsnLdZgV13-fill)" stroke-width="0.5" stroke-linecap="round" stroke-linejoin="round"/><line x1="-0.463309" y1="-0.194842" x2="0.64153" y2="0.636676" transform="translate(151.522273 134.054319)" fill="none" stroke="#fff" stroke-width="0.5" stroke-linecap="round"/><line x1="-2.644654" y1="2.451509" x2="-0.824492" y2="-0.187017" transform="translate(154.857038 132.199744)" fill="none" stroke="#fff" stroke-width="0.5" stroke-linecap="round"/></g><g id="e5EtsnLdZgV16" transform="matrix(.856259 0 0 0.856259 4.182561 41.694194)" opacity="0"><rect width="7.985007" height="11.429171" rx="0" ry="0" transform="translate(128.373432 138.57083)" fill="none" stroke="#fff" stroke-width="0.5" stroke-linejoin="round"/><rect width="1.152847" height="1.174923" rx="0" ry="0" transform="translate(129.49567 139.893811)" fill="none" stroke="#fff" stroke-width="0.2"/><rect width="1.152847" height="1.174923" rx="0" ry="0" transform="translate(129.49567 139.893811)" fill="none" stroke="#fff" stroke-width="0.2"/><rect width="1.152847" height="1.174923" rx="0" ry="0" transform="translate(129.49567 141.893811)" fill="none" stroke="#fff" stroke-width="0.2"/><rect width="1.152847" height="1.174923" rx="0" ry="0" transform="translate(129.49567 143.893811)" fill="none" stroke="#fff" stroke-width="0.2"/><rect width="1.152847" height="1.174923" rx="0" ry="0" transform="translate(129.49567 145.893811)" fill="none" stroke="#fff" stroke-width="0.2"/><line x1="-1.983448" y1="0" x2="1.983447" y2="0" transform="translate(133.318194 146.550857)" fill="none" stroke="#fff" stroke-width="0.2"/><line x1="-1.983448" y1="0" x2="1.983447" y2="0" transform="translate(133.318194 144.550857)" fill="none" stroke="#fff" stroke-width="0.2"/><line x1="-1.983448" y1="0" x2="1.983447" y2="0" transform="translate(133.318194 142.550857)" fill="none" stroke="#fff" stroke-width="0.2"/><line x1="-1.983448" y1="0" x2="1.983447" y2="0" transform="translate(133.318194 140.550857)" fill="none" stroke="#fff" stroke-width="0.2"/></g></svg>
